# xmcd CD database file
#
# Track frame offsets:
#	150
#	13765
#	25900
#	39136
#	54207
#	67763
#	81046
#	94613
#	107991
#	120931
#	134853
#	149332
#	161502
#	174703
#	188579
#	200050
#	212765
#	225669
#
# Disc length: 3154 seconds
#
# Revision: 1
# Processed by: cddbd v1.5.1PL2 Copyright (c) Steve Scherf et al.
# Submitted via: CDex 1.51
#
DISCID=ee0c5012
DTITLE=Big Joe Turner - Quadromania - Rocks In My Bed CD 2
DYEAR=2005
DGENRE=Blues
TTITLE0=I Got A Gal (For Every Day In The Week)
TTITLE1=Rebecca
TTITLE2=It's The Same Old Story
TTITLE3=Little Bitty Gal's blues
TTITLE4=SK Blues Part 1
TTITLE5=SK Blues Part 2
TTITLE6=Johnson And Turner Blues
TTITLE7=Watch That Jive
TTITLE8=Howlin' Winds
TTITLE9=Doggin' The Blues (Low Dog Blues)
TTITLE10=My Gal's A Jockey
TTITLE11=I Got My Discharge Papers
TTITLE12=Sally Zu-Zazz-Blues
TTITLE13=New Oo-Wee-Baby-Blues (Wee Baby Blues)
TTITLE14=Low Down Dog
TTITLE15=Battle Of The Blues, Part 2
TTITLE16=Battle Of The Blues, Part 1
TTITLE17=Morning Glory
EXTD=YEAR: 2005
EXTT0=
EXTT1=
EXTT2=
EXTT3=
EXTT4=
EXTT5=
EXTT6=
EXTT7=
EXTT8=
EXTT9=
EXTT10=
EXTT11=
EXTT12=
EXTT13=
EXTT14=
EXTT15=
EXTT16=
EXTT17=
PLAYORDER=
